# xmcd
#
# Track frame offsets: 
#        150
#        14636
#        30481
#        42792
#        56593
#        62627
#        73779
#        86631
#        99596
#        114209
#        130265
#        136452
#
# Disc length: 1932 seconds
#
# Revision: 0
# Processed by: cddbd v1.5.2PL0 Copyright (c) Steve Scherf et al.
# Submitted via: ExactAudioCopy v0.99pb4
#
DISCID=a2078a0c
DTITLE=Hoyt Axton - Fearless
DYEAR=1976
DGENRE=Country
TTITLE0=Idol Of The Band
TTITLE1=Evangelina
TTITLE2=Flash Of Fire
TTITLE3=Lay Lady Lay
TTITLE4=Jealous Man
TTITLE5=Paid In Advance
TTITLE6=An Old Grayhound
TTITLE7=A Stone And A Feather
TTITLE8=Gypsy Moth
TTITLE9=Beyond These Walls
TTITLE10=Penny Whistle Song
TTITLE11=The Devil
EXTD=
EXTT0=
EXTT1=
EXTT2=
EXTT3=
EXTT4=
EXTT5=
EXTT6=
EXTT7=
EXTT8=
EXTT9=
EXTT10=
EXTT11=
PLAYORDER=
